<svg width="1440" height="1770" viewBox="0 0 1440 1770" fill="none" xmlns="http://www.w3.org/2000/svg">
<g opacity="0.3">
<path d="M-2159 1187L-559.593 428L604.703 398L958.793 -133H1615.96M28.5565 1769L1210.86 869L1240.86 251L1772 191V-145M1623.39 -133.571L997.517 -117.571L634.997 391L-475.286 449L-2054.83 1214.71M1630.82 -134.143L1036.24 -102.143L665.29 384L-390.979 470L-1950.66 1242.43M1638.25 -134.714L1074.97 -86.7142L695.584 377L-306.671 491L-1846.49 1270.14M1645.68 -135.286L1113.69 -71.2859L725.877 370L-222.364 512L-1742.32 1297.86M1653.11 -135.857L1152.41 -55.8572L756.17 363L-138.057 533L-1638.15 1325.57M1660.54 -136.428L1191.14 -40.4285L786.464 356L-53.7502 554L-1533.98 1353.29M1667.97 -137L1229.86 -25.0001L816.757 349L30.5569 575L-1429.81 1381M1675.4 -137.571L1268.59 -9.57141L847.05 342L114.864 596L-1325.65 1408.71M1682.83 -138.143L1307.31 5.8573L877.344 335L199.171 617L-1221.48 1436.43M1690.26 -138.714L1346.03 21.2856L907.637 328L283.479 638L-1117.31 1464.14M1697.7 -139.286L1384.76 36.7144L937.931 321L367.786 659L-1013.14 1491.86M1705.13 -139.857L1423.48 52.1427L968.224 314L452.093 680L-908.968 1519.57M1712.56 -140.429L1462.21 67.5714L998.518 307L536.4 701L-804.798 1547.29M1719.99 -141L1500.93 83.0001L1028.81 300L620.707 722L-700.629 1575M1727.42 -141.572L1539.66 98.4285L1059.1 293L705.014 743L-596.46 1602.71M1734.85 -142.143L1578.38 113.857L1089.4 286L789.321 764L-492.29 1630.43M1742.28 -142.714L1617.1 129.286L1119.69 279L873.629 785L-388.121 1658.14M1749.71 -143.286L1655.83 144.714L1149.98 272L957.936 806L-283.951 1685.86M1757.14 -143.857L1694.55 160.143L1180.28 265L1042.24 827L-179.782 1713.57M1764.57 -144.429L1733.28 175.571L1210.57 258L1126.55 848L-75.6129 1741.29" stroke="#009FE3"/>
<path d="M-2159 1187L-559.593 428L604.703 398L958.793 -133H1615.96M28.5565 1769L1210.86 869L1240.86 251L1772 191V-145M1623.39 -133.571L997.517 -117.571L634.997 391L-475.286 449L-2054.83 1214.71M1630.82 -134.143L1036.24 -102.143L665.29 384L-390.979 470L-1950.66 1242.43M1638.25 -134.714L1074.97 -86.7142L695.584 377L-306.671 491L-1846.49 1270.14M1645.68 -135.286L1113.69 -71.2859L725.877 370L-222.364 512L-1742.32 1297.86M1653.11 -135.857L1152.41 -55.8572L756.17 363L-138.057 533L-1638.15 1325.57M1660.54 -136.428L1191.14 -40.4285L786.464 356L-53.7502 554L-1533.98 1353.29M1667.97 -137L1229.86 -25.0001L816.757 349L30.5569 575L-1429.81 1381M1675.4 -137.571L1268.59 -9.57141L847.05 342L114.864 596L-1325.65 1408.71M1682.83 -138.143L1307.31 5.8573L877.344 335L199.171 617L-1221.48 1436.43M1690.26 -138.714L1346.03 21.2856L907.637 328L283.479 638L-1117.31 1464.14M1697.7 -139.286L1384.76 36.7144L937.931 321L367.786 659L-1013.14 1491.86M1705.13 -139.857L1423.48 52.1427L968.224 314L452.093 680L-908.968 1519.57M1712.56 -140.429L1462.21 67.5714L998.518 307L536.4 701L-804.798 1547.29M1719.99 -141L1500.93 83.0001L1028.81 300L620.707 722L-700.629 1575M1727.42 -141.572L1539.66 98.4285L1059.1 293L705.014 743L-596.46 1602.71M1734.85 -142.143L1578.38 113.857L1089.4 286L789.321 764L-492.29 1630.43M1742.28 -142.714L1617.1 129.286L1119.69 279L873.629 785L-388.121 1658.14M1749.71 -143.286L1655.83 144.714L1149.98 272L957.936 806L-283.951 1685.86M1757.14 -143.857L1694.55 160.143L1180.28 265L1042.24 827L-179.782 1713.57M1764.57 -144.429L1733.28 175.571L1210.57 258L1126.55 848L-75.6129 1741.29" stroke="url(#paint0_linear_47_949)"/>
</g>
<defs>
<linearGradient id="paint0_linear_47_949" x1="-357.934" y1="936.603" x2="17.1522" y2="433.032" gradientUnits="userSpaceOnUse">
<stop stop-color="#16161C"/>
<stop offset="1" stop-color="white" stop-opacity="0"/>
</linearGradient>
</defs>
</svg>
