<svg xmlns="http://www.w3.org/2000/svg" viewBox="0 0 429.51 203.29"><defs><style>.cls-1{fill:#fff;}.cls-2{fill:#22a5df;}.cls-3{fill:#009fe3;}</style></defs><g id="Capa_2" data-name="Capa 2"><g id="Capa_1-2" data-name="Capa 1"><path class="cls-1" d="M206.9,2.92c-88.79,0-160.76,44.2-160.76,98.72s72,98.73,160.76,98.73,160.75-44.2,160.75-98.73S295.68,2.92,206.9,2.92Zm0,161.47c-56.44,0-102.18-28.09-102.18-62.75S150.46,38.89,206.9,38.89,309.07,67,309.07,101.64,263.33,164.39,206.9,164.39Z"/><path d="M206.9,203.29c-43.48,0-84.39-10.43-115.2-29.35-31.26-19.2-48.48-44.87-48.48-72.3S60.44,48.54,91.7,29.35C122.51,10.42,163.42,0,206.9,0s84.38,10.42,115.19,29.35c31.27,19.19,48.48,44.87,48.48,72.29s-17.21,53.1-48.48,72.3C291.28,192.86,250.37,203.29,206.9,203.29Zm0-197.45c-87,0-157.84,43-157.84,95.8s70.8,95.81,157.84,95.81,157.84-43,157.84-95.81S293.93,5.84,206.9,5.84Zm0,161.47c-27.83,0-54-6.68-73.78-18.81-20.2-12.4-31.32-29-31.32-46.86s11.12-34.45,31.32-46.85C152.87,42.66,179.07,36,206.9,36s54,6.68,73.77,18.81c20.2,12.4,31.32,29,31.32,46.85s-11.12,34.46-31.32,46.86C260.92,160.63,234.72,167.31,206.9,167.31Zm0-125.5c-54.74,0-99.26,26.84-99.26,59.83s44.52,59.83,99.26,59.83,99.25-26.84,99.25-59.83S261.63,41.81,206.9,41.81Z"/><path class="cls-2" d="M198.32,68a33.88,33.88,0,1,0,37.49,29.51A33.84,33.84,0,0,0,198.32,68Zm16.42,45a10.93,10.93,0,1,1,9.45-12.18A10.87,10.87,0,0,1,214.74,113Z"/><path class="cls-1" d="M339,123.49V89.37h87.18c.07,1.1.15,2.36.19,3.68s0,3.31,0,5.89q0,42.06-22.16,65.24T341.8,187.37q-19.82,0-35.19-6a77.35,77.35,0,0,1-27.52-18.18,82.32,82.32,0,0,1-18-27.63,89.26,89.26,0,0,1-6.37-33.44A88.32,88.32,0,0,1,261,68.65a81.79,81.79,0,0,1,18.56-27.52,83.12,83.12,0,0,1,28.09-18A94.38,94.38,0,0,1,341.8,17q23.9,0,42.28,9.45t31,28.13L376.56,73a46.58,46.58,0,0,0-15.48-14,40.39,40.39,0,0,0-19.28-4.63q-19.94,0-31.35,13.28T299,104c0,15.48,3.84,27.7,11.47,36.58s18.06,13.36,31.35,13.36c11.23,0,20.64-2.77,28.16-8.31a31.66,31.66,0,0,0,13.17-22.09Z"/><path d="M341.8,190.49c-13.57,0-25.79-2.08-36.32-6.17a80.8,80.8,0,0,1-28.61-18.9,86,86,0,0,1-18.66-28.65,92.89,92.89,0,0,1-6.6-34.61,91.9,91.9,0,0,1,6.45-34.68,85.33,85.33,0,0,1,19.25-28.56A86.61,86.61,0,0,1,306.47,20.2a97.83,97.83,0,0,1,35.33-6.32c16.35,0,31.05,3.29,43.7,9.79S409,40,417.63,52.82l2,3L375.57,77,374,74.85A43.81,43.81,0,0,0,359.6,61.72a37.36,37.36,0,0,0-17.8-4.26c-12.43,0-21.91,4-29,12.2S302.1,89.46,302.1,104c0,14.66,3.6,26.28,10.71,34.55s16.55,12.28,29,12.28c10.52,0,19.37-2.6,26.3-7.71a28.18,28.18,0,0,0,11.27-16.46h-43.5V86.25h93.2l.21,2.9c.09,1.4.16,2.64.19,3.81,0,1.38,0,3.41,0,6,0,28.73-7.75,51.41-23,67.39S369.36,190.49,341.8,190.49Zm0-170.38A91.83,91.83,0,0,0,308.72,26a80.46,80.46,0,0,0-27,17.36,79,79,0,0,0-17.84,26.45,85.69,85.69,0,0,0-6,32.34A86.59,86.59,0,0,0,264,134.44,79.6,79.6,0,0,0,281.3,161a74.46,74.46,0,0,0,26.43,17.47c9.82,3.82,21.27,5.75,34.07,5.75,25.8,0,46-7.48,60.18-22.23s21.3-36,21.3-63.08c0-2.52,0-4.51,0-5.8,0-.21,0-.43,0-.65H342.11v27.89H386.7l-.48,3.53A34.82,34.82,0,0,1,371.8,148.1c-8,5.91-18.12,8.91-30,8.91-14.18,0-25.52-4.86-33.72-14.45-8.11-9.43-12.22-22.42-12.22-38.61,0-16,4.11-28.92,12.22-38.36s19.57-14.37,33.72-14.37a43.55,43.55,0,0,1,20.74,5,48.52,48.52,0,0,1,15,12.88l32.88-15.75a79.07,79.07,0,0,0-27.73-24.13C370.89,23.18,357.15,20.11,341.8,20.11Z"/><path class="cls-3" d="M68.45,179.66,4.21,23.52H48.56S83,100.24,84.34,106.21c1.11-4.77,35.78-82.69,35.78-82.69h44.35L100.23,179.66Z"/><path d="M102.12,182.49H66.56L0,20.7H50.39l.75,1.66c3,6.62,25.33,56.57,33.24,76,8-19.24,30.19-69.28,33.16-75.95l.75-1.67h50.4Zm-31.78-5.65h28l61.92-150.5H122c-13.82,31.08-34,77-34.87,80.51l-2.82,11.38-2.68-11.38c-1-4.11-21.08-49.76-34.85-80.51H8.43Z"/></g></g></svg>