<svg xmlns="http://www.w3.org/2000/svg" viewBox="0 0 522.04 87.58"><defs><style>.cls-1{fill:#009fe3;}.cls-2{fill:#fff;}</style></defs><g id="Capa_2" data-name="Capa 2"><g id="Capa_1-2" data-name="Capa 1"><path class="cls-1" d="M228.33,47.32V1.11h12.6V36.52h15.65v10.8Zm-56,0,16-46.21h15.78l16,46.21H207.49L205.15,39h-17.9l-2.4,8.28ZM190,30.05H202.5L197.79,14.8c-.14-.46-.34-1.2-.59-2.24s-.58-2.35-1-4c-.27,1.14-.54,2.22-.81,3.25s-.53,2-.8,3ZM124.29,1.11h12.56V23.58c0,3.31.09,5.68.25,7.13a13.48,13.48,0,0,0,.86,3.61,5.25,5.25,0,0,0,2.52,2.7,10.78,10.78,0,0,0,8.76,0,5.35,5.35,0,0,0,2.53-2.7,13.85,13.85,0,0,0,.87-3.61c.16-1.45.24-3.82.24-7.13V1.11h12.53V25.54a49.94,49.94,0,0,1-.91,11.22,15.22,15.22,0,0,1-3.09,6.17,14.36,14.36,0,0,1-6.5,4.22,36.77,36.77,0,0,1-20.1,0,14.51,14.51,0,0,1-6.51-4.22,15.33,15.33,0,0,1-3.08-6.17,49.1,49.1,0,0,1-.93-11.22V1.11ZM85.16,32.39a22.87,22.87,0,0,0,5.55,4.76,10.81,10.81,0,0,0,5.44,1.58,6.23,6.23,0,0,0,4.15-1.36,4.27,4.27,0,0,0,1.62-3.43,4.5,4.5,0,0,0-1.4-3.56q-1.41-1.24-6.36-2.57Q87.38,26,84.57,23.05a11.17,11.17,0,0,1-2.82-8A14.2,14.2,0,0,1,86.19,4.18Q90.62,0,97.69,0a25.66,25.66,0,0,1,7.25,1,23.6,23.6,0,0,1,6.48,3.12l-3.94,9.06a16.61,16.61,0,0,0-4.4-2.77,11.9,11.9,0,0,0-4.47-.93,6,6,0,0,0-3.69,1.09,3.36,3.36,0,0,0-1.42,2.79,3.44,3.44,0,0,0,1.25,2.78,13.33,13.33,0,0,0,4.8,2l.57.17c5.14,1.37,8.51,2.9,10.13,4.56a11.32,11.32,0,0,1,2.5,4.1,15.51,15.51,0,0,1,.85,5.28,15.31,15.31,0,0,1-4.83,11.82c-3.22,3-7.5,4.47-12.87,4.47a22.83,22.83,0,0,1-8.79-1.64,25.07,25.07,0,0,1-7.63-5.15ZM56.33,47.32V1.11H69.05V47.32Zm-36.95,0L0,1.11H13.38L22.63,27c.08.28.25.93.52,2s.61,2.45,1,4.22c.33-1.41.64-2.68.94-3.82s.52-1.93.66-2.37L35,1.11H48.35L29,47.32Z"/><path class="cls-2" d="M499.29,21.91h2.4q4.55,0,6.34-1.25c1.19-.83,1.8-2.24,1.8-4.24a4.71,4.71,0,0,0-1.77-4.14c-1.18-.82-3.27-1.23-6.25-1.23h-2.52Zm0,25.41H487.48V1.11h13.17a53.4,53.4,0,0,1,10.86.75,12.8,12.8,0,0,1,5.3,2.6,13.68,13.68,0,0,1,3.9,5.28A18.05,18.05,0,0,1,522,16.8a18.64,18.64,0,0,1-1.32,7.27,12.74,12.74,0,0,1-3.91,5.16,12.53,12.53,0,0,1-4.61,2.18,38.86,38.86,0,0,1-8.49.66h-4.42ZM431.2,1.11h12.57V23.58a69.48,69.48,0,0,0,.25,7.13,13.48,13.48,0,0,0,.86,3.61A5.21,5.21,0,0,0,447.4,37a10.78,10.78,0,0,0,8.76,0,5.43,5.43,0,0,0,2.53-2.7,13.48,13.48,0,0,0,.86-3.61c.16-1.45.25-3.82.25-7.13V1.11h12.53V25.54a49.22,49.22,0,0,1-.92,11.22,15,15,0,0,1-3.09,6.17,14.31,14.31,0,0,1-6.5,4.22,36.74,36.74,0,0,1-20.09,0,14.54,14.54,0,0,1-6.52-4.22,15.59,15.59,0,0,1-3.08-6.17,49.68,49.68,0,0,1-.93-11.22V1.11ZM393.32,37.88A11.07,11.07,0,0,0,402,34a14.06,14.06,0,0,0,3.43-9.72,14,14,0,0,0-3.47-9.7,11.57,11.57,0,0,0-17.28,0,14.07,14.07,0,0,0-3.43,9.71,14.19,14.19,0,0,0,3.37,9.75A11.11,11.11,0,0,0,393.32,37.88ZM418,24.31a23.52,23.52,0,0,1-7.16,17.14,25.45,25.45,0,0,1-8.08,5.26,25.24,25.24,0,0,1-18.92,0,24.22,24.22,0,0,1-8-5.26,23.43,23.43,0,0,1-7.27-17.14,23.35,23.35,0,0,1,7.27-17.15,24.2,24.2,0,0,1,8-5.25,25.21,25.21,0,0,1,19,0,24.6,24.6,0,0,1,8,5.25A23.62,23.62,0,0,1,418,24.31ZM335.34,23h2.34c2.71,0,4.7-.46,5.95-1.39a5.06,5.06,0,0,0,1.87-4.35q0-3.48-1.75-5c-1.17-1-3.13-1.46-5.89-1.46h-2.52ZM323.53,47.32V1.11H336.7a55,55,0,0,1,10.77.71,13.86,13.86,0,0,1,5.26,2.38A12.58,12.58,0,0,1,356.57,9a15.44,15.44,0,0,1,1.33,6.47,13.71,13.71,0,0,1-2.63,8.73,12.8,12.8,0,0,1-7.68,4.46l12.59,18.63H345.94l-10.6-18.09V47.32Zm-38.11-17V20.61h24.75c0,.31,0,.67.06,1.05s0,.93,0,1.67q0,11.94-6.3,18.52t-17.72,6.58a27.46,27.46,0,0,1-10-1.69,22,22,0,0,1-7.81-5.16,23.39,23.39,0,0,1-5.11-7.85,25.42,25.42,0,0,1-1.81-9.49,25.15,25.15,0,0,1,1.77-9.51,23.15,23.15,0,0,1,5.27-7.81,23.62,23.62,0,0,1,8-5.12A26.88,26.88,0,0,1,286.22.06a25.87,25.87,0,0,1,12,2.69,23.54,23.54,0,0,1,8.79,8L296.09,16a13.16,13.16,0,0,0-4.4-4,11.43,11.43,0,0,0-5.47-1.31,11.15,11.15,0,0,0-8.9,3.77q-3.24,3.78-3.25,10.31c0,4.39,1.09,7.86,3.25,10.38a11.07,11.07,0,0,0,8.9,3.8,13.12,13.12,0,0,0,8-2.36A9,9,0,0,0,298,30.3Z"/><path class="cls-2" d="M440.71,86.38H438V53.76h2.68Zm-12.37,0V83a6.77,6.77,0,0,1-6.55,4.23,8.25,8.25,0,0,1-6.48-2.75,10.56,10.56,0,0,1-2.44-7.28,10.82,10.82,0,0,1,2.42-7.31,8.43,8.43,0,0,1,10.36-1.79,7,7,0,0,1,2.69,3.06V67.71h2.58V86.38Zm-12.59-9.14a8.5,8.5,0,0,0,1.63,5.58,5.74,5.74,0,0,0,4.66,2,5.62,5.62,0,0,0,4.65-2.13,9.27,9.27,0,0,0,1.69-5.88,8,8,0,0,0-1.69-5.4,5.75,5.75,0,0,0-4.61-2,5.64,5.64,0,0,0-4.63,2.09A8.84,8.84,0,0,0,415.75,77.24Zm-21.32-9.53V77q0,4.25,1.21,6a5.68,5.68,0,0,0,8.2,0c.82-1.18,1.24-3.18,1.24-6V67.71h2.56V78.35q0,4.37-2,6.6a7.46,7.46,0,0,1-5.88,2.24A7.54,7.54,0,0,1,393.86,85c-1.34-1.49-2-3.69-2-6.6V67.71ZM373.27,83l2.46-1.41a4.58,4.58,0,0,0,4.61,3.14,3.91,3.91,0,0,0,2.61-.83,2.75,2.75,0,0,0,1-2.22q0-2.14-3.81-3.64a5.87,5.87,0,0,1-.63-.25,11.8,11.8,0,0,1-4.13-2.39,4.25,4.25,0,0,1-1.18-3,5,5,0,0,1,1.69-3.91A6.25,6.25,0,0,1,380.21,67a7.24,7.24,0,0,1,3.88,1,5.69,5.69,0,0,1,2.34,2.81l-2.38,1.33a3.82,3.82,0,0,0-1.48-2,4.4,4.4,0,0,0-2.52-.69,3.16,3.16,0,0,0-2.22.79,2.53,2.53,0,0,0-.88,2,2.44,2.44,0,0,0,.86,1.91,11.2,11.2,0,0,0,3.58,1.66,9.55,9.55,0,0,1,4.14,2.35,5.24,5.24,0,0,1,1.06,3.49,5.08,5.08,0,0,1-1.83,4.1,7.44,7.44,0,0,1-4.93,1.53,7.54,7.54,0,0,1-4.09-1.08A6.12,6.12,0,0,1,373.27,83Zm-7.62,3.34V67.71h2.67V86.38Zm-.66-26a1.88,1.88,0,0,1,.59-1.39,2,2,0,0,1,1.42-.58,1.93,1.93,0,0,1,1.41.58,1.86,1.86,0,0,1,.61,1.39,1.9,1.9,0,0,1-.59,1.42A2,2,0,0,1,365,60.42Zm-20.7,7.29h2.84l5.72,14.14,5.71-14.14h2.88l-8.59,19.87ZM312.21,86.38V67.71h2.46V70.6a7.46,7.46,0,0,1,2.79-2.69,7.77,7.77,0,0,1,3.79-.89A6.14,6.14,0,0,1,328,73.71V86.38h-2.63V74.87a6.24,6.24,0,0,0-1.17-4.16,4.51,4.51,0,0,0-3.61-1.36,5.26,5.26,0,0,0-4.37,1.76q-1.4,1.76-1.4,5.53v9.74ZM293.92,64.7l4.48-7.36h3.46l-6,7.36Zm2.72,22.49a9.52,9.52,0,0,1-3.83-.79,10.8,10.8,0,0,1-3.33-2.26A9.48,9.48,0,0,1,287.34,81a10.23,10.23,0,0,1-.74-3.88,10,10,0,0,1,.76-3.87A9.82,9.82,0,0,1,289.53,70,9.9,9.9,0,0,1,296.64,67,10.13,10.13,0,0,1,303.88,70a10.06,10.06,0,0,1,2.23,11,9.75,9.75,0,0,1-2.19,3.22,10.32,10.32,0,0,1-3.35,2.26A10,10,0,0,1,296.64,87.19Zm.08-2.42a7,7,0,0,0,5.21-2.22,8.05,8.05,0,0,0,0-10.9,7.23,7.23,0,0,0-10.41,0,8,8,0,0,0,0,10.9A6.92,6.92,0,0,0,296.72,84.77Zm-18.31,1.61V67.71h2.68V86.38Zm-.65-26a1.85,1.85,0,0,1,.59-1.39,1.93,1.93,0,0,1,1.41-.58,2,2,0,0,1,1.42.58,1.85,1.85,0,0,1,.6,1.39,1.89,1.89,0,0,1-.58,1.42,2.08,2.08,0,0,1-2.86,0A1.89,1.89,0,0,1,277.76,60.42Zm-4.65,10.7a10,10,0,0,0-2.78-1.36,10.24,10.24,0,0,0-3-.45,7.18,7.18,0,0,0-5.53,2.22,8.37,8.37,0,0,0-2.06,5.92,7.29,7.29,0,0,0,2.13,5.41A7.42,7.42,0,0,0,267.3,85a9.47,9.47,0,0,0,3.07-.52,12.16,12.16,0,0,0,3-1.59v2.84a11,11,0,0,1-3,1.17,15.54,15.54,0,0,1-3.56.39,9.32,9.32,0,0,1-7-2.81,9.83,9.83,0,0,1-2.74-7.18A9.78,9.78,0,0,1,267.35,67a15.11,15.11,0,0,1,3.16.32,10.61,10.61,0,0,1,2.65.94Zm-24,15.26V83a6.77,6.77,0,0,1-6.55,4.23A8.25,8.25,0,0,1,236,84.44a10.56,10.56,0,0,1-2.44-7.28A10.82,10.82,0,0,1,236,69.85a8.43,8.43,0,0,1,10.36-1.79,7,7,0,0,1,2.69,3.06V67.71h2.58V86.38Zm-12.59-9.14a8.5,8.5,0,0,0,1.63,5.58,5.74,5.74,0,0,0,4.66,2,5.6,5.6,0,0,0,4.64-2.13,9.21,9.21,0,0,0,1.7-5.88,8,8,0,0,0-1.69-5.4,5.75,5.75,0,0,0-4.61-2,5.64,5.64,0,0,0-4.63,2.09A8.84,8.84,0,0,0,236.48,77.24Zm-6.33-6.12a10.1,10.1,0,0,0-2.78-1.36,10.29,10.29,0,0,0-3-.45,7.17,7.17,0,0,0-5.53,2.22,8.33,8.33,0,0,0-2.07,5.92,7.3,7.3,0,0,0,2.14,5.41A7.41,7.41,0,0,0,224.34,85a9.46,9.46,0,0,0,3.06-.52,12.16,12.16,0,0,0,3-1.59v2.84a10.91,10.91,0,0,1-3,1.17,15.51,15.51,0,0,1-3.55.39,9.34,9.34,0,0,1-7-2.81,9.86,9.86,0,0,1-2.73-7.18A9.77,9.77,0,0,1,224.38,67a15.2,15.2,0,0,1,3.17.32,10.53,10.53,0,0,1,2.64.94ZM205.88,86.38V67.71h2.68V86.38Zm-.65-26a1.85,1.85,0,0,1,.59-1.39,1.92,1.92,0,0,1,1.41-.58,2,2,0,0,1,1.42.58,1.85,1.85,0,0,1,.6,1.39,1.89,1.89,0,0,1-.58,1.42,2.08,2.08,0,0,1-2.86,0A1.89,1.89,0,0,1,205.23,60.42Zm-22,26V67.71h2.46V70.6a7.46,7.46,0,0,1,2.79-2.69A7.77,7.77,0,0,1,192.3,67,6.14,6.14,0,0,1,199,73.71V86.38h-2.63V74.87a6.24,6.24,0,0,0-1.17-4.16,4.49,4.49,0,0,0-3.61-1.36,5.23,5.23,0,0,0-4.36,1.76q-1.41,1.76-1.41,5.53v9.74ZM163.14,67.71V77q0,4.25,1.21,6a5.68,5.68,0,0,0,8.2,0c.83-1.18,1.24-3.18,1.24-6V67.71h2.57V78.35q0,4.37-2,6.6a7.46,7.46,0,0,1-5.88,2.24A7.54,7.54,0,0,1,162.57,85c-1.34-1.49-2-3.69-2-6.6V67.71Zm-34,18.67h-2.59V67.71h2.59v2.92a6.8,6.8,0,0,1,2.44-2.69,6.64,6.64,0,0,1,3.49-.92,6.25,6.25,0,0,1,3.48.93,5.89,5.89,0,0,1,2.22,2.75,7.66,7.66,0,0,1,2.74-2.77,7.53,7.53,0,0,1,3.76-.91A6.11,6.11,0,0,1,152,68.81a6.92,6.92,0,0,1,1.7,4.94V86.38h-2.58V74.78a6.48,6.48,0,0,0-1.13-4.13,4.08,4.08,0,0,0-3.36-1.38A4.51,4.51,0,0,0,142.66,71c-.84,1.17-1.25,3-1.25,5.54v9.83h-2.57V74.78a6.63,6.63,0,0,0-1.07-4.18,4,4,0,0,0-3.32-1.33,4.67,4.67,0,0,0-4,1.76q-1.28,1.77-1.28,5.52ZM111,87.19a9.52,9.52,0,0,1-3.83-.79,10.76,10.76,0,0,1-3.32-2.26A9.48,9.48,0,0,1,101.69,81a10,10,0,0,1-.74-3.88,10.14,10.14,0,0,1,.75-3.87A10,10,0,0,1,103.87,70,9.9,9.9,0,0,1,111,67a10.41,10.41,0,0,1,3.93.75A10.27,10.27,0,0,1,118.22,70a10,10,0,0,1,2.23,11,9.75,9.75,0,0,1-2.19,3.22,10.32,10.32,0,0,1-3.35,2.26A10,10,0,0,1,111,87.19Zm.09-2.42a6.94,6.94,0,0,0,5.2-2.22,8,8,0,0,0,0-10.9,7.23,7.23,0,0,0-10.41,0,8.07,8.07,0,0,0,0,10.9A6.93,6.93,0,0,0,111.07,84.77ZM97.37,71.12a10.1,10.1,0,0,0-2.78-1.36,10.29,10.29,0,0,0-3-.45A7.18,7.18,0,0,0,86,71.53,8.37,8.37,0,0,0,84,77.45a7.29,7.29,0,0,0,2.13,5.41A7.42,7.42,0,0,0,91.56,85a9.56,9.56,0,0,0,3.07-.52,12.1,12.1,0,0,0,3-1.59v2.84a10.91,10.91,0,0,1-3,1.17,15.45,15.45,0,0,1-3.55.39,9.34,9.34,0,0,1-7-2.81,9.86,9.86,0,0,1-2.73-7.18A9.77,9.77,0,0,1,91.6,67a15.2,15.2,0,0,1,3.17.32,10.39,10.39,0,0,1,2.64.94Z"/></g></g></svg>